<svg width="24" height="24" viewBox="0 0 24 24" fill="none" xmlns="http://www.w3.org/2000/svg">
<path d="M0.5 11.5C0.5 17.5751 5.42487 22.5 11.5 22.5C17.5751 22.5 22.5 17.5751 22.5 11.5C22.5 5.42487 17.5751 0.5 11.5 0.5C5.42487 0.5 0.5 5.42487 0.5 11.5Z" fill="var(--mw-icon-background-default-white, #FFFFFF)" stroke="var(--mw-icon-glyph-content-light-blue, #278CDD)" stroke-linecap="round"/>
<path d="M10.0349 14.5645C10.0349 13.6707 10.15 12.9583 10.3802 12.4274C10.6105 11.8965 11.064 11.3152 11.7407 10.6835C12.4244 10.045 12.857 9.5914 13.0384 9.32258C13.3174 8.91263 13.457 8.46909 13.457 7.99194C13.457 7.36021 13.293 6.8797 12.9651 6.5504C12.6442 6.21438 12.1698 6.04637 11.5419 6.04637C10.9419 6.04637 10.457 6.21102 10.0872 6.54032C9.72442 6.8629 9.54302 7.30309 9.54302 7.86089H7C7.01395 6.67137 7.43256 5.73051 8.25581 5.03831C9.08605 4.3461 10.1814 4 11.5419 4C12.9442 4 14.036 4.34274 14.8174 5.02823C15.6058 5.71371 16 6.67137 16 7.90121C16 8.99664 15.4698 10.0753 14.4093 11.1371L13.1221 12.3569C12.6616 12.8609 12.4244 13.5968 12.4105 14.5645H10.0349ZM9.85698 17.6996C9.85698 17.3031 9.98605 16.9839 10.2442 16.7419C10.5023 16.4933 10.8512 16.369 11.2907 16.369C11.7372 16.369 12.0895 16.4966 12.3477 16.752C12.6058 17.0007 12.7349 17.3165 12.7349 17.6996C12.7349 18.0692 12.6093 18.3784 12.3581 18.627C12.107 18.8757 11.7512 19 11.2907 19C10.8302 19 10.4744 18.8757 10.2233 18.627C9.97907 18.3784 9.85698 18.0692 9.85698 17.6996Z" fill="var(--mw-icon-border-default-blue, #1656A7)"/>
</svg>
