<svg width="24" height="24" viewBox="0 0 24 24" fill="none" xmlns="http://www.w3.org/2000/svg">
<path d="M3.5 4C3.5 3.72386 3.72386 3.5 4 3.5H9.79289C9.9255 3.5 10.0527 3.55268 10.1464 3.64645L11.8536 5.35355C11.9473 5.44732 12.0745 5.5 12.2071 5.5H23C23.2761 5.5 23.5 5.72386 23.5 6L23.5 12.5667V20C23.5 20.2761 23.2761 20.5 23 20.5H4C3.72386 20.5 3.5 20.2761 3.5 20V4Z" fill="var(--mw-icon-background-light-yellow, #FFF5BC)" stroke="#674C06"/>
<path d="M1.14782 8.5H19.9712C20.1986 8.5 20.3973 8.65339 20.4549 8.87332L23.3359 19.8733C23.4189 20.1902 23.1798 20.5 22.8522 20.5H4.02877C3.80142 20.5 3.60268 20.3466 3.54508 20.1267L0.66413 9.12668C0.581131 8.80977 0.820222 8.5 1.14782 8.5Z" fill="var(--mw-icon-background-light-yellow, #FFF5BC)" stroke="#674C06"/>
</svg>
