<svg width="24" height="24" viewBox="0 0 24 24" fill="none" xmlns="http://www.w3.org/2000/svg">
<path d="M0.5 1.5C0.5 0.947716 0.947715 0.5 1.5 0.5H21.5C22.0523 0.5 22.5 0.947715 22.5 1.5V21.5C22.5 22.0523 22.0523 22.5 21.5 22.5H4.65942C4.44305 22.5 4.23252 22.4298 4.05942 22.3L0.9 19.9304C0.648194 19.7416 0.5 19.4452 0.5 19.1304V1.5Z" fill="var(--mw-icon-background-default-medium-gray, #D9D9D9)" stroke="var(--mw-icon-border-default-gray, #616161)"/>
<path d="M4.5 15C4.5 14.7239 4.72386 14.5 5 14.5H18C18.2761 14.5 18.5 14.7239 18.5 15V22.5H4.75C4.61193 22.5 4.5 22.3881 4.5 22.25V15Z" fill="var(--mw-icon-background-default-white, #FFFFFF)" stroke="var(--mw-icon-border-default-gray, #616161)"/>
<rect x="7" y="17" width="3" height="5" fill="var(--mw-icon-border-default-gray, #616161)"/>
<path d="M3.5 0.5H19.5V11C19.5 11.2761 19.2761 11.5 19 11.5H4C3.72386 11.5 3.5 11.2761 3.5 11V0.5Z" fill="white" stroke="var(--mw-icon-border-default-gray, #616161)"/>
</svg>
